<mxfile host="Electron" agent="Mozilla/5.0 (X11; Linux x86_64) AppleWebKit/537.36 (KHTML, like Gecko) draw.io/28.0.6 Chrome/138.0.7204.100 Electron/37.2.3 Safari/537.36" version="28.0.6">
  <diagram name="第 1 页" id="jaxIl0iMCObU8xPcl2MN">
    <mxGraphModel dx="1977" dy="686" grid="1" gridSize="10" guides="1" tooltips="1" connect="1" arrows="1" fold="1" page="1" pageScale="1" pageWidth="827" pageHeight="1169" math="0" shadow="0">
      <root>
        <mxCell id="0" />
        <mxCell id="1" parent="0" />
        <mxCell id="s-vSDAAKdeSJeBJjAyNH-1" value="AuthServer" style="rounded=0;whiteSpace=wrap;html=1;" vertex="1" parent="1">
          <mxGeometry x="54" y="373" width="80" height="40" as="geometry" />
        </mxCell>
        <mxCell id="s-vSDAAKdeSJeBJjAyNH-2" value="ChatServer" style="rounded=0;whiteSpace=wrap;html=1;" vertex="1" parent="1">
          <mxGeometry x="294" y="199" width="80" height="40" as="geometry" />
        </mxCell>
        <mxCell id="s-vSDAAKdeSJeBJjAyNH-3" value="FtpServer" style="rounded=0;whiteSpace=wrap;html=1;" vertex="1" parent="1">
          <mxGeometry x="-32" y="200" width="80" height="40" as="geometry" />
        </mxCell>
        <mxCell id="s-vSDAAKdeSJeBJjAyNH-4" value="" style="endArrow=classic;html=1;rounded=0;exitX=0.5;exitY=1;exitDx=0;exitDy=0;" edge="1" parent="1" source="s-vSDAAKdeSJeBJjAyNH-1">
          <mxGeometry width="50" height="50" relative="1" as="geometry">
            <mxPoint x="94" y="544" as="sourcePoint" />
            <mxPoint x="94" y="454" as="targetPoint" />
          </mxGeometry>
        </mxCell>
        <mxCell id="s-vSDAAKdeSJeBJjAyNH-6" value="onMessage()" style="edgeLabel;html=1;align=center;verticalAlign=middle;resizable=0;points=[];" vertex="1" connectable="0" parent="s-vSDAAKdeSJeBJjAyNH-4">
          <mxGeometry x="-0.2808" y="-1" relative="1" as="geometry">
            <mxPoint x="1" y="5" as="offset" />
          </mxGeometry>
        </mxCell>
        <mxCell id="s-vSDAAKdeSJeBJjAyNH-62" value="reactors" style="edgeLabel;html=1;align=center;verticalAlign=middle;resizable=0;points=[];" vertex="1" connectable="0" parent="s-vSDAAKdeSJeBJjAyNH-4">
          <mxGeometry x="-0.8476" y="2" relative="1" as="geometry">
            <mxPoint x="-2" y="5" as="offset" />
          </mxGeometry>
        </mxCell>
        <mxCell id="s-vSDAAKdeSJeBJjAyNH-7" value="parseMessage()" style="rounded=0;whiteSpace=wrap;html=1;" vertex="1" parent="1">
          <mxGeometry x="39" y="454" width="110" height="40" as="geometry" />
        </mxCell>
        <mxCell id="s-vSDAAKdeSJeBJjAyNH-17" style="edgeStyle=orthogonalEdgeStyle;rounded=0;orthogonalLoop=1;jettySize=auto;html=1;exitX=0.5;exitY=1;exitDx=0;exitDy=0;entryX=0.5;entryY=0;entryDx=0;entryDy=0;" edge="1" parent="1" source="s-vSDAAKdeSJeBJjAyNH-7" target="s-vSDAAKdeSJeBJjAyNH-27">
          <mxGeometry relative="1" as="geometry">
            <mxPoint x="93" y="544" as="targetPoint" />
          </mxGeometry>
        </mxCell>
        <mxCell id="s-vSDAAKdeSJeBJjAyNH-65" value="JSON deserialization" style="edgeLabel;html=1;align=center;verticalAlign=middle;resizable=0;points=[];" vertex="1" connectable="0" parent="s-vSDAAKdeSJeBJjAyNH-17">
          <mxGeometry x="-0.5371" relative="1" as="geometry">
            <mxPoint as="offset" />
          </mxGeometry>
        </mxCell>
        <mxCell id="s-vSDAAKdeSJeBJjAyNH-20" value="" style="endArrow=none;html=1;rounded=0;" edge="1" parent="1">
          <mxGeometry width="50" height="50" relative="1" as="geometry">
            <mxPoint x="94" y="524" as="sourcePoint" />
            <mxPoint x="-6" y="524" as="targetPoint" />
          </mxGeometry>
        </mxCell>
        <mxCell id="s-vSDAAKdeSJeBJjAyNH-21" value="" style="endArrow=none;html=1;rounded=0;" edge="1" parent="1">
          <mxGeometry width="50" height="50" relative="1" as="geometry">
            <mxPoint x="94" y="524" as="sourcePoint" />
            <mxPoint x="194" y="524" as="targetPoint" />
          </mxGeometry>
        </mxCell>
        <mxCell id="s-vSDAAKdeSJeBJjAyNH-22" value="" style="endArrow=classic;html=1;rounded=0;" edge="1" parent="1">
          <mxGeometry width="50" height="50" relative="1" as="geometry">
            <mxPoint x="-6" y="524" as="sourcePoint" />
            <mxPoint x="-6" y="544" as="targetPoint" />
          </mxGeometry>
        </mxCell>
        <mxCell id="s-vSDAAKdeSJeBJjAyNH-23" value="" style="endArrow=classic;html=1;rounded=0;" edge="1" parent="1">
          <mxGeometry width="50" height="50" relative="1" as="geometry">
            <mxPoint x="194" y="524" as="sourcePoint" />
            <mxPoint x="194" y="544" as="targetPoint" />
            <Array as="points">
              <mxPoint x="194" y="544" />
            </Array>
          </mxGeometry>
        </mxCell>
        <mxCell id="s-vSDAAKdeSJeBJjAyNH-27" value="login" style="rounded=0;whiteSpace=wrap;html=1;" vertex="1" parent="1">
          <mxGeometry x="54" y="544" width="80" height="30" as="geometry" />
        </mxCell>
        <mxCell id="s-vSDAAKdeSJeBJjAyNH-29" value="token" style="rounded=0;whiteSpace=wrap;html=1;" vertex="1" parent="1">
          <mxGeometry x="152" y="544" width="80" height="30" as="geometry" />
        </mxCell>
        <mxCell id="s-vSDAAKdeSJeBJjAyNH-30" value="register" style="rounded=0;whiteSpace=wrap;html=1;" vertex="1" parent="1">
          <mxGeometry x="-36" y="544" width="70" height="30" as="geometry" />
        </mxCell>
        <mxCell id="s-vSDAAKdeSJeBJjAyNH-47" value="" style="rounded=0;whiteSpace=wrap;html=1;strokeWidth=1;fillStyle=solid;fillColor=none;" vertex="1" parent="1">
          <mxGeometry x="-44" y="519" width="280" height="61" as="geometry" />
        </mxCell>
        <mxCell id="s-vSDAAKdeSJeBJjAyNH-49" value="" style="endArrow=classic;startArrow=classic;html=1;rounded=0;entryX=1;entryY=0.867;entryDx=0;entryDy=0;entryPerimeter=0;" edge="1" parent="1" target="s-vSDAAKdeSJeBJjAyNH-52">
          <mxGeometry width="50" height="50" relative="1" as="geometry">
            <mxPoint x="350" y="560" as="sourcePoint" />
            <mxPoint x="6" y="534" as="targetPoint" />
          </mxGeometry>
        </mxCell>
        <mxCell id="s-vSDAAKdeSJeBJjAyNH-141" value="cpp_redis" style="edgeLabel;html=1;align=center;verticalAlign=middle;resizable=0;points=[];" vertex="1" connectable="0" parent="s-vSDAAKdeSJeBJjAyNH-49">
          <mxGeometry x="0.1266" y="-3" relative="1" as="geometry">
            <mxPoint as="offset" />
          </mxGeometry>
        </mxCell>
        <mxCell id="s-vSDAAKdeSJeBJjAyNH-52" value="" style="rounded=0;whiteSpace=wrap;html=1;fillColor=none;" vertex="1" parent="1">
          <mxGeometry x="-52" y="360" width="300" height="229" as="geometry" />
        </mxCell>
        <mxCell id="s-vSDAAKdeSJeBJjAyNH-58" value="" style="endArrow=classic;html=1;rounded=0;" edge="1" parent="1">
          <mxGeometry width="50" height="50" relative="1" as="geometry">
            <mxPoint x="-43" y="543.31" as="sourcePoint" />
            <mxPoint x="-114" y="544" as="targetPoint" />
          </mxGeometry>
        </mxCell>
        <mxCell id="s-vSDAAKdeSJeBJjAyNH-59" value="response" style="edgeLabel;html=1;align=center;verticalAlign=middle;resizable=0;points=[];" vertex="1" connectable="0" parent="s-vSDAAKdeSJeBJjAyNH-58">
          <mxGeometry x="-0.2845" y="-2" relative="1" as="geometry">
            <mxPoint x="-10" y="1" as="offset" />
          </mxGeometry>
        </mxCell>
        <mxCell id="s-vSDAAKdeSJeBJjAyNH-66" value="" style="endArrow=classic;html=1;rounded=0;exitX=0.5;exitY=1;exitDx=0;exitDy=0;" edge="1" parent="1" source="s-vSDAAKdeSJeBJjAyNH-2">
          <mxGeometry width="50" height="50" relative="1" as="geometry">
            <mxPoint x="334" y="319" as="sourcePoint" />
            <mxPoint x="334" y="289" as="targetPoint" />
          </mxGeometry>
        </mxCell>
        <mxCell id="s-vSDAAKdeSJeBJjAyNH-67" value="reactors" style="edgeLabel;html=1;align=center;verticalAlign=middle;resizable=0;points=[];" vertex="1" connectable="0" parent="s-vSDAAKdeSJeBJjAyNH-66">
          <mxGeometry x="-0.3208" relative="1" as="geometry">
            <mxPoint as="offset" />
          </mxGeometry>
        </mxCell>
        <mxCell id="s-vSDAAKdeSJeBJjAyNH-68" value="onMessage()" style="edgeLabel;html=1;align=center;verticalAlign=middle;resizable=0;points=[];" vertex="1" connectable="0" parent="s-vSDAAKdeSJeBJjAyNH-66">
          <mxGeometry x="0.3241" relative="1" as="geometry">
            <mxPoint as="offset" />
          </mxGeometry>
        </mxCell>
        <mxCell id="s-vSDAAKdeSJeBJjAyNH-70" value="packet splitting" style="rounded=0;whiteSpace=wrap;html=1;" vertex="1" parent="1">
          <mxGeometry x="274" y="289" width="120" height="30" as="geometry" />
        </mxCell>
        <mxCell id="s-vSDAAKdeSJeBJjAyNH-71" value="ThreadPool" style="rounded=0;whiteSpace=wrap;html=1;" vertex="1" parent="1">
          <mxGeometry x="454" y="269" width="100" height="50" as="geometry" />
        </mxCell>
        <mxCell id="s-vSDAAKdeSJeBJjAyNH-72" value="" style="endArrow=classic;html=1;rounded=0;exitX=0.5;exitY=1;exitDx=0;exitDy=0;entryX=0.5;entryY=1;entryDx=0;entryDy=0;" edge="1" parent="1" source="s-vSDAAKdeSJeBJjAyNH-70" target="s-vSDAAKdeSJeBJjAyNH-71">
          <mxGeometry width="50" height="50" relative="1" as="geometry">
            <mxPoint x="234" y="359" as="sourcePoint" />
            <mxPoint x="504" y="339" as="targetPoint" />
            <Array as="points">
              <mxPoint x="334" y="339" />
              <mxPoint x="504" y="339" />
            </Array>
          </mxGeometry>
        </mxCell>
        <mxCell id="s-vSDAAKdeSJeBJjAyNH-73" value="parseMessage()" style="edgeLabel;html=1;align=center;verticalAlign=middle;resizable=0;points=[];" vertex="1" connectable="0" parent="s-vSDAAKdeSJeBJjAyNH-72">
          <mxGeometry x="-0.0857" y="1" relative="1" as="geometry">
            <mxPoint as="offset" />
          </mxGeometry>
        </mxCell>
        <mxCell id="s-vSDAAKdeSJeBJjAyNH-81" value="pool.enqueue()" style="edgeLabel;html=1;align=center;verticalAlign=middle;resizable=0;points=[];" vertex="1" connectable="0" parent="s-vSDAAKdeSJeBJjAyNH-72">
          <mxGeometry x="0.902" y="1" relative="1" as="geometry">
            <mxPoint as="offset" />
          </mxGeometry>
        </mxCell>
        <mxCell id="s-vSDAAKdeSJeBJjAyNH-79" value="" style="endArrow=none;dashed=1;html=1;dashPattern=1 3;strokeWidth=2;rounded=0;" edge="1" parent="1">
          <mxGeometry width="50" height="50" relative="1" as="geometry">
            <mxPoint x="414" y="379" as="sourcePoint" />
            <mxPoint x="414" y="339" as="targetPoint" />
          </mxGeometry>
        </mxCell>
        <mxCell id="s-vSDAAKdeSJeBJjAyNH-83" value="&lt;font style=&quot;font-size: 9px;&quot;&gt;protobuf parse&lt;/font&gt;" style="rounded=0;whiteSpace=wrap;html=1;" vertex="1" parent="1">
          <mxGeometry x="364" y="360" width="100" height="24" as="geometry" />
        </mxCell>
        <mxCell id="s-vSDAAKdeSJeBJjAyNH-84" value="" style="endArrow=classic;html=1;rounded=0;exitX=0.5;exitY=1;exitDx=0;exitDy=0;" edge="1" parent="1" source="s-vSDAAKdeSJeBJjAyNH-83">
          <mxGeometry width="50" height="50" relative="1" as="geometry">
            <mxPoint x="264" y="504" as="sourcePoint" />
            <mxPoint x="454" y="414" as="targetPoint" />
            <Array as="points">
              <mxPoint x="414" y="394" />
              <mxPoint x="454" y="394" />
              <mxPoint x="454" y="404" />
            </Array>
          </mxGeometry>
        </mxCell>
        <mxCell id="s-vSDAAKdeSJeBJjAyNH-85" value="" style="endArrow=classic;html=1;rounded=0;" edge="1" parent="1">
          <mxGeometry width="50" height="50" relative="1" as="geometry">
            <mxPoint x="414" y="394" as="sourcePoint" />
            <mxPoint x="374" y="414" as="targetPoint" />
            <Array as="points">
              <mxPoint x="374" y="394" />
            </Array>
          </mxGeometry>
        </mxCell>
        <mxCell id="s-vSDAAKdeSJeBJjAyNH-86" value="&lt;span style=&quot;color: rgb(0, 0, 0); font-family: Helvetica; font-style: normal; font-variant-ligatures: normal; font-variant-caps: normal; font-weight: 400; letter-spacing: normal; orphans: 2; text-align: center; text-indent: 0px; text-transform: none; widows: 2; word-spacing: 0px; -webkit-text-stroke-width: 0px; white-space: normal; text-decoration-thickness: initial; text-decoration-style: initial; text-decoration-color: initial; float: none; display: inline !important;&quot;&gt;&lt;font style=&quot;font-size: 9px;&quot;&gt;ServiceHandler&lt;/font&gt;&lt;/span&gt;" style="rounded=0;whiteSpace=wrap;html=1;" vertex="1" parent="1">
          <mxGeometry x="334" y="414" width="70" height="30" as="geometry" />
        </mxCell>
        <mxCell id="s-vSDAAKdeSJeBJjAyNH-87" value="&lt;font style=&quot;font-size: 9px;&quot;&gt;Message&lt;/font&gt;" style="rounded=0;whiteSpace=wrap;html=1;" vertex="1" parent="1">
          <mxGeometry x="424" y="414" width="70" height="30" as="geometry" />
        </mxCell>
        <mxCell id="s-vSDAAKdeSJeBJjAyNH-89" value="" style="endArrow=classic;html=1;rounded=0;exitX=0.5;exitY=1;exitDx=0;exitDy=0;" edge="1" parent="1" source="s-vSDAAKdeSJeBJjAyNH-86">
          <mxGeometry width="50" height="50" relative="1" as="geometry">
            <mxPoint x="314" y="554" as="sourcePoint" />
            <mxPoint x="369" y="464" as="targetPoint" />
          </mxGeometry>
        </mxCell>
        <mxCell id="s-vSDAAKdeSJeBJjAyNH-90" value="service" style="rounded=0;whiteSpace=wrap;html=1;" vertex="1" parent="1">
          <mxGeometry x="334" y="464" width="70" height="30" as="geometry" />
        </mxCell>
        <mxCell id="s-vSDAAKdeSJeBJjAyNH-95" value="&lt;font style=&quot;font-size: 9px;&quot;&gt;sendMsgToUser&lt;/font&gt;" style="rounded=0;whiteSpace=wrap;html=1;" vertex="1" parent="1">
          <mxGeometry x="424" y="464" width="70" height="30" as="geometry" />
        </mxCell>
        <mxCell id="s-vSDAAKdeSJeBJjAyNH-96" value="" style="endArrow=classic;html=1;rounded=0;exitX=0.5;exitY=1;exitDx=0;exitDy=0;entryX=0.5;entryY=0;entryDx=0;entryDy=0;" edge="1" parent="1" source="s-vSDAAKdeSJeBJjAyNH-87" target="s-vSDAAKdeSJeBJjAyNH-95">
          <mxGeometry width="50" height="50" relative="1" as="geometry">
            <mxPoint x="454.4500000000003" y="450.70000000000005" as="sourcePoint" />
            <mxPoint x="454" y="469" as="targetPoint" />
          </mxGeometry>
        </mxCell>
        <mxCell id="s-vSDAAKdeSJeBJjAyNH-142" value="" style="edgeStyle=orthogonalEdgeStyle;rounded=0;orthogonalLoop=1;jettySize=auto;html=1;" edge="1" parent="1" source="s-vSDAAKdeSJeBJjAyNH-97" target="s-vSDAAKdeSJeBJjAyNH-118">
          <mxGeometry relative="1" as="geometry">
            <Array as="points">
              <mxPoint x="414" y="530" />
              <mxPoint x="414" y="530" />
            </Array>
          </mxGeometry>
        </mxCell>
        <mxCell id="s-vSDAAKdeSJeBJjAyNH-144" value="cpp_redis" style="edgeLabel;html=1;align=center;verticalAlign=middle;resizable=0;points=[];" vertex="1" connectable="0" parent="s-vSDAAKdeSJeBJjAyNH-142">
          <mxGeometry x="-0.2467" relative="1" as="geometry">
            <mxPoint as="offset" />
          </mxGeometry>
        </mxCell>
        <mxCell id="s-vSDAAKdeSJeBJjAyNH-97" value="" style="rounded=0;whiteSpace=wrap;html=1;fillColor=none;" vertex="1" parent="1">
          <mxGeometry x="264" y="190" width="300" height="310" as="geometry" />
        </mxCell>
        <mxCell id="s-vSDAAKdeSJeBJjAyNH-98" value="handleUpload()" style="rounded=0;whiteSpace=wrap;html=1;" vertex="1" parent="1">
          <mxGeometry x="48" y="265" width="110" height="30" as="geometry" />
        </mxCell>
        <mxCell id="s-vSDAAKdeSJeBJjAyNH-100" value="" style="edgeStyle=orthogonalEdgeStyle;rounded=0;orthogonalLoop=1;jettySize=auto;html=1;exitX=0.5;exitY=1;exitDx=0;exitDy=0;entryX=0;entryY=0.5;entryDx=0;entryDy=0;" edge="1" parent="1" source="s-vSDAAKdeSJeBJjAyNH-3" target="s-vSDAAKdeSJeBJjAyNH-102">
          <mxGeometry relative="1" as="geometry">
            <mxPoint x="8" y="370" as="targetPoint" />
          </mxGeometry>
        </mxCell>
        <mxCell id="s-vSDAAKdeSJeBJjAyNH-101" value="onMessage()" style="edgeLabel;html=1;align=center;verticalAlign=middle;resizable=0;points=[];" vertex="1" connectable="0" parent="s-vSDAAKdeSJeBJjAyNH-100">
          <mxGeometry x="-0.0111" y="1" relative="1" as="geometry">
            <mxPoint y="-36" as="offset" />
          </mxGeometry>
        </mxCell>
        <mxCell id="s-vSDAAKdeSJeBJjAyNH-112" value="reactors" style="edgeLabel;html=1;align=center;verticalAlign=middle;resizable=0;points=[];" vertex="1" connectable="0" parent="s-vSDAAKdeSJeBJjAyNH-100">
          <mxGeometry x="-0.9151" relative="1" as="geometry">
            <mxPoint y="3" as="offset" />
          </mxGeometry>
        </mxCell>
        <mxCell id="s-vSDAAKdeSJeBJjAyNH-113" value="&lt;font style=&quot;font-size: 9px;&quot;&gt;parseMessage()&lt;/font&gt;" style="edgeLabel;html=1;align=center;verticalAlign=middle;resizable=0;points=[];" vertex="1" connectable="0" parent="s-vSDAAKdeSJeBJjAyNH-100">
          <mxGeometry x="-0.0132" relative="1" as="geometry">
            <mxPoint as="offset" />
          </mxGeometry>
        </mxCell>
        <mxCell id="s-vSDAAKdeSJeBJjAyNH-102" value="handleDownload()" style="rounded=0;whiteSpace=wrap;html=1;" vertex="1" parent="1">
          <mxGeometry x="48" y="308" width="110" height="30" as="geometry" />
        </mxCell>
        <mxCell id="s-vSDAAKdeSJeBJjAyNH-103" value="" style="endArrow=classic;html=1;rounded=0;exitX=1;exitY=0.5;exitDx=0;exitDy=0;" edge="1" parent="1" source="s-vSDAAKdeSJeBJjAyNH-98">
          <mxGeometry width="50" height="50" relative="1" as="geometry">
            <mxPoint x="-2" y="265" as="sourcePoint" />
            <mxPoint x="178" y="280" as="targetPoint" />
          </mxGeometry>
        </mxCell>
        <mxCell id="s-vSDAAKdeSJeBJjAyNH-104" value="" style="endArrow=classic;html=1;rounded=0;exitX=1;exitY=0.5;exitDx=0;exitDy=0;" edge="1" parent="1">
          <mxGeometry width="50" height="50" relative="1" as="geometry">
            <mxPoint x="159" y="326" as="sourcePoint" />
            <mxPoint x="179" y="326" as="targetPoint" />
            <Array as="points">
              <mxPoint x="169" y="326" />
            </Array>
          </mxGeometry>
        </mxCell>
        <mxCell id="s-vSDAAKdeSJeBJjAyNH-105" value="&lt;font style=&quot;font-size: 9px;&quot;&gt;onReceive()&lt;/font&gt;" style="text;html=1;align=center;verticalAlign=middle;resizable=0;points=[];autosize=1;strokeColor=none;fillColor=none;" vertex="1" parent="1">
          <mxGeometry x="172" y="263" width="70" height="30" as="geometry" />
        </mxCell>
        <mxCell id="s-vSDAAKdeSJeBJjAyNH-109" value="&lt;font style=&quot;font-size: 9px;&quot;&gt;onSend()&lt;/font&gt;" style="text;html=1;align=center;verticalAlign=middle;resizable=0;points=[];autosize=1;strokeColor=none;fillColor=none;" vertex="1" parent="1">
          <mxGeometry x="173" y="310" width="60" height="30" as="geometry" />
        </mxCell>
        <mxCell id="s-vSDAAKdeSJeBJjAyNH-111" value="" style="endArrow=classic;html=1;rounded=0;" edge="1" parent="1">
          <mxGeometry width="50" height="50" relative="1" as="geometry">
            <mxPoint x="8" y="280" as="sourcePoint" />
            <mxPoint x="48" y="280" as="targetPoint" />
          </mxGeometry>
        </mxCell>
        <mxCell id="s-vSDAAKdeSJeBJjAyNH-114" value="" style="rounded=0;whiteSpace=wrap;html=1;fillColor=none;" vertex="1" parent="1">
          <mxGeometry x="-44" y="190" width="290" height="160" as="geometry" />
        </mxCell>
        <mxCell id="s-vSDAAKdeSJeBJjAyNH-118" value="&lt;font style=&quot;font-size: 15px;&quot;&gt;redis&lt;/font&gt;" style="rounded=0;whiteSpace=wrap;html=1;" vertex="1" parent="1">
          <mxGeometry x="353" y="529" width="120" height="60" as="geometry" />
        </mxCell>
        <mxCell id="s-vSDAAKdeSJeBJjAyNH-123" value="addr :8080" style="text;html=1;align=center;verticalAlign=middle;resizable=0;points=[];autosize=1;strokeColor=none;fillColor=none;" vertex="1" parent="1">
          <mxGeometry x="373" y="200" width="80" height="30" as="geometry" />
        </mxCell>
        <mxCell id="s-vSDAAKdeSJeBJjAyNH-127" value="addr :7070" style="text;html=1;align=center;verticalAlign=middle;resizable=0;points=[];autosize=1;strokeColor=none;fillColor=none;" vertex="1" parent="1">
          <mxGeometry x="128" y="373" width="80" height="30" as="geometry" />
        </mxCell>
        <mxCell id="s-vSDAAKdeSJeBJjAyNH-128" value="addr :6060" style="text;html=1;align=center;verticalAlign=middle;resizable=0;points=[];autosize=1;strokeColor=none;fillColor=none;" vertex="1" parent="1">
          <mxGeometry x="48" y="199" width="80" height="30" as="geometry" />
        </mxCell>
        <mxCell id="s-vSDAAKdeSJeBJjAyNH-129" value="" style="endArrow=classic;html=1;rounded=0;" edge="1" parent="1">
          <mxGeometry width="50" height="50" relative="1" as="geometry">
            <mxPoint x="-110" y="400" as="sourcePoint" />
            <mxPoint x="-52" y="399.16346153846155" as="targetPoint" />
          </mxGeometry>
        </mxCell>
        <mxCell id="s-vSDAAKdeSJeBJjAyNH-130" value="connect" style="edgeLabel;html=1;align=center;verticalAlign=middle;resizable=0;points=[];" vertex="1" connectable="0" parent="s-vSDAAKdeSJeBJjAyNH-129">
          <mxGeometry x="-0.1011" y="2" relative="1" as="geometry">
            <mxPoint as="offset" />
          </mxGeometry>
        </mxCell>
        <mxCell id="s-vSDAAKdeSJeBJjAyNH-131" value="acceptor" style="rounded=0;whiteSpace=wrap;html=1;" vertex="1" parent="1">
          <mxGeometry x="-20" y="381" width="50" height="30" as="geometry" />
        </mxCell>
        <mxCell id="s-vSDAAKdeSJeBJjAyNH-134" value="" style="endArrow=none;dashed=1;html=1;dashPattern=1 3;strokeWidth=2;rounded=0;" edge="1" parent="1">
          <mxGeometry width="50" height="50" relative="1" as="geometry">
            <mxPoint x="-60" y="400" as="sourcePoint" />
            <mxPoint x="-22" y="400" as="targetPoint" />
          </mxGeometry>
        </mxCell>
        <mxCell id="s-vSDAAKdeSJeBJjAyNH-139" style="edgeStyle=orthogonalEdgeStyle;rounded=0;orthogonalLoop=1;jettySize=auto;html=1;entryX=0.004;entryY=0.595;entryDx=0;entryDy=0;entryPerimeter=0;" edge="1" parent="1" source="s-vSDAAKdeSJeBJjAyNH-131" target="s-vSDAAKdeSJeBJjAyNH-1">
          <mxGeometry relative="1" as="geometry" />
        </mxCell>
        <mxCell id="s-vSDAAKdeSJeBJjAyNH-145" value="" style="endArrow=classic;html=1;rounded=0;entryX=0.283;entryY=0.014;entryDx=0;entryDy=0;entryPerimeter=0;" edge="1" parent="1">
          <mxGeometry width="50" height="50" relative="1" as="geometry">
            <mxPoint x="10" y="168" as="sourcePoint" />
            <mxPoint x="10.070000000000164" y="190.24" as="targetPoint" />
          </mxGeometry>
        </mxCell>
        <mxCell id="s-vSDAAKdeSJeBJjAyNH-146" value="client request" style="edgeLabel;html=1;align=center;verticalAlign=middle;resizable=0;points=[];" vertex="1" connectable="0" parent="s-vSDAAKdeSJeBJjAyNH-145">
          <mxGeometry x="-0.4804" relative="1" as="geometry">
            <mxPoint y="-10" as="offset" />
          </mxGeometry>
        </mxCell>
        <mxCell id="s-vSDAAKdeSJeBJjAyNH-147" value="" style="endArrow=classic;html=1;rounded=0;entryX=0.283;entryY=0.014;entryDx=0;entryDy=0;entryPerimeter=0;" edge="1" parent="1">
          <mxGeometry width="50" height="50" relative="1" as="geometry">
            <mxPoint x="334" y="170" as="sourcePoint" />
            <mxPoint x="334.07000000000016" y="192.24" as="targetPoint" />
          </mxGeometry>
        </mxCell>
        <mxCell id="s-vSDAAKdeSJeBJjAyNH-148" value="client request" style="edgeLabel;html=1;align=center;verticalAlign=middle;resizable=0;points=[];" vertex="1" connectable="0" parent="s-vSDAAKdeSJeBJjAyNH-147">
          <mxGeometry x="-0.4804" relative="1" as="geometry">
            <mxPoint y="-10" as="offset" />
          </mxGeometry>
        </mxCell>
      </root>
    </mxGraphModel>
  </diagram>
</mxfile>
